<svg xmlns="http://www.w3.org/2000/svg"><style>:root svg:not(:target){display:none}</style><svg viewBox="0 0 34 18" fill="none" id="burger"><path d="M30 1h-26m26 16h-26" stroke="#0D1627" stroke-width="2" stroke-linecap="square"></path></svg><svg viewBox="0 0 89 10" fill="none" id="chulakov"><g clip-path="url(#chulakov_0)"><path d="M9.65 6.13h-2.79a1.65 1.65 0 0 1-1.15 1.5c-.22.06-.44.1-.67.07-1.34 0-2.09-.98-2.09-2.7v-.11c0-1.75.8-2.71 2.05-2.71a1.53 1.53 0 0 1 1.16.4c.31.29.49.69.48 1.11h2.89c-.24-2.53-2-3.69-4.54-3.69a4.79 4.79 0 0 0-4.66 2.98 4.86 4.86 0 0 0-.33 1.92v.1c0 2.95 1.68 4.9 5.1 4.9 2.53 0 4.36-1.29 4.55-3.77Zm5.37 3.61v-3.78h3.2v3.78h2.8v-9.59h-2.8v3.66h-3.2v-3.66h-2.82v9.59h2.82Zm17.78-3.93v-5.66h-2.83v5.54c0 1.44-.37 2.05-1.53 2.05-1.19 0-1.53-.65-1.53-2v-5.59h-2.8v5.7c0 2.69 1.57 4.05 4.33 4.05 2.7 0 4.36-1.3 4.36-4.09m9.58 3.93v-2.13h-3.69v-7.46h-2.81v9.59h6.5Zm6.71-7.36 1.07 3.69h-2.15l1.08-3.7Zm-4.75 7.36h2.6l.53-1.78h3.24l.51 1.78h2.97l-3.1-9.58h-3.62l-3.13 9.58Zm14.89 0v-4l2.81 4h3.24l-3.77-5.13 3.58-4.46h-2.92l-2.94 3.8v-3.8h-2.82v9.59h2.82Zm17.5-4.8v-.1c0-2.98-2.19-4.82-5.17-4.82a4.9 4.9 0 0 0-4.78 2.95 4.8 4.8 0 0 0-.38 1.93v.11c0 2.88 1.97 4.9 5.12 4.9 3.16 0 5.22-2.02 5.22-4.97Zm-7.41.06v-.11c0-1.75.86-2.73 2.24-2.73 1.37 0 2.25 1.01 2.25 2.71v.11c.01 1.72-.85 2.76-2.23 2.76-1.36 0-2.26-1-2.26-2.74Zm12.04 4.74h3.18l3.2-9.58h-2.62l-2 6.73-1.98-6.73h-3l3.22 9.58Z" fill="#0D1627"></path></g><defs><clipPath id="chulakov_0"><path fill="#fff" d="M0 0h88.38v9.9h-88.38z"></path></clipPath></defs></svg><svg viewBox="0 0 28 22" fill="none" id="cross"><path d="m5 19.8 18.38-18.39m-18.38.39 18.38 18.38" stroke="#0D1627" stroke-width="2" stroke-linecap="square"></path></svg><svg viewBox="0 0 59 19" fill="none" id="epam"><g clip-path="url(#epam_0)"><path d="M23.25.5c1.93 0 2.88 1.04 2.88 2.55v8.06c0 1.53-.95 2.55-2.88 2.55a4.3 4.3 0 0 1-2.75-.93v4.15h-2.27v-16.23h2.27v.82a4.24 4.24 0 0 1 2.75-.97Zm-10.14-.02c2.4 0 3.63.97 3.63 2.92v4.4h-5.43v3.02c0 .77.46 1.14 1.41 1.14h.42c.95 0 1.41-.37 1.41-1.14v-1.47h2.19v1.41c0 1.92-1.21 2.92-3.63 2.92h-.46c-2.4 0-3.63-.98-3.63-2.7v-7.35c0-2.15 1.2-3.15 3.63-3.15h.46Zm18.48 0c2.4 0 3.63.97 3.63 2.92v10.11h-2.27v-.8a4.3 4.3 0 0 1-2.75.95c-1.8 0-2.65-.83-2.65-2.28v-2.34h-.05c0-1.59.64-2.23 2.36-2.7l3.04-.83v-2.17c0-.77-.46-1.18-1.41-1.18h-.36c-.96 0-1.42.41-1.42 1.18v1.82h-2.19v-1.76c0-1.92 1.21-2.92 3.63-2.92h.44Zm15.41.02c1.75 0 2.66.87 2.66 2.28v10.75h-2.27v-10.38c0-.64-.38-.93-1.08-.93-.62 0-1.29.19-2.08.64v10.65h-2.22v-10.36c0-.64-.38-.93-1.08-.93-.62 0-1.29.19-2.08.64v10.65h-2.27v-12.86h2.27v.82c.64-.5 1.52-.97 2.75-.97 1.16 0 1.93.38 2.34 1.06a5.13 5.13 0 0 1 3.06-1.06Zm-40.84 3.7-3.78 2.9 3.78 2.85v2.42l-5.79-4.38v-1.74l5.8-4.42v2.38Zm52.17 2.05v1.74l-5.8 4.38v-2.42l3.8-2.85-3.8-2.92v-2.35l5.8 4.42Zm-27.49 1.47c-.82.27-1.1.6-1.1 1.34v1.97c0 .62.38.93 1.1.93.7-.02 1.32-.2 2.06-.62v-4.24l-2.06.62Zm-8.26-5.5c-.75 0-1.47.25-2.08.66v8.4a3.6 3.6 0 0 0 2.08.66c.82 0 1.31-.31 1.31-1.06v-7.6c0-.75-.46-1.06-1.3-1.06Zm-9.83-.02c-.95 0-1.42.37-1.42 1.14v2.73h3.2v-2.73c0-.77-.47-1.14-1.42-1.14h-.36Z" fill="#0D1627"></path></g><defs><clipPath id="epam_0"><path fill="#fff" d="M0 0h58.42v18.49h-58.42z"></path></clipPath></defs></svg><svg viewBox="0 0 127 28" fill="none" id="logo-spreent"><g clip-path="url(#logo-spreent_0)" fill="#0D1627"><path d="M7.87 4.2c4.4 0 7.26 1.8 7.26 5.32v.32h-3.8v-.35c0-1.96-1.54-2.55-3.46-2.55h-.52c-1.97 0-3.3.53-3.3 1.95s1.27 1.8 4.61 2.24c4.86.7 6.69 2.07 6.69 4.69v.22c0 3.05-2.74 4.72-7.39 4.72h-.51c-4.62 0-7.45-1.67-7.45-5.36v-.25h3.77v.31c0 1.83 1.4 2.52 3.68 2.52h.51c2.5 0 3.59-.63 3.59-1.89 0-1.4-1.25-1.86-4.8-2.33-4.2-.53-6.54-1.63-6.54-4.63v-.22c0-2.96 2.86-4.71 7.14-4.71h.52Zm14.31.27v2.1h.64c1.19-1.6 2.98-2.37 5.2-2.37h.52c3.95 0 6.81 2.4 6.81 7.46v1.64c0 5.07-2.86 7.46-6.8 7.46h-.52c-2.28 0-4.06-.82-5.2-2.42h-.65v9.66h-3.85v-23.53h3.85Zm0 7.15v1.7c0 2.8 1.74 4.22 4.4 4.22h.48c2.7 0 4.39-1.48 4.39-4.22v-1.7c0-2.77-1.69-4.25-4.39-4.25h-.47c-2.67 0-4.4 1.45-4.4 4.25Zm20.31-7.15v1.86h.63c.89-1.35 2.22-2.14 4.32-2.14 3.22 0 5.01 1.75 5.01 6.08v.93h-3.61v-.55c0-1.99-.98-3.12-3.13-3.12-2.22 0-3.22 1.13-3.22 3.12v9.8h-3.86v-15.98h3.86Zm22.25-.27c4.66 0 7.72 2.45 6.68 7.46l-.37 1.8h-13.2c-.6 2.93.76 4.35 3.55 4.35h.52c2.52 0 4.15-.92 4.95-2.59h3.63c-1.15 3.34-4.28 5.55-9.2 5.55h-.52c-4.67 0-7.7-2.43-6.66-7.44l.34-1.67c1.05-5.01 5.06-7.46 9.76-7.46h.52Zm-6.32 6.54h9.45c.3-2.33-1.18-3.62-3.71-3.62h-.53c-2.69 0-4.54 1.26-5.21 3.62Zm26.24-6.54c4.66 0 7.72 2.45 6.68 7.46l-.37 1.8h-13.2c-.6 2.93.75 4.35 3.55 4.35h.52c2.52 0 4.15-.92 4.95-2.59h3.63c-1.15 3.33-4.28 5.54-9.2 5.54h-.52c-4.66 0-7.69-2.43-6.65-7.44l.33-1.67c1.05-5 5.06-7.45 9.76-7.45h.52Zm-6.32 6.54h9.45c.3-2.33-1.18-3.62-3.73-3.62h-.52c-2.68 0-4.53 1.26-5.2 3.62Zm19.76-6.27v2.1h.67c.95-1.48 2.68-2.4 4.99-2.4h.48c3.65 0 5.9 2.15 5.9 6.69v9.58h-3.9v-8.91c0-2.62-1.3-4-3.8-4h-.47c-2.43 0-3.85 1.4-3.85 4v8.91h-3.88v-15.97h3.86Zm20.15-4.47v4.47h7.9v3h-7.9v7.58c0 1.67.82 2.58 2.33 2.58h.52c1.52 0 2.31-.91 2.31-2.58v-1.26h3.47v1.26c0 4-2.37 5.7-5.75 5.7h-.5c-3.56 0-6.24-1.7-6.24-5.7v-7.59h-2.4v-2.99h2.4v-4.47h3.86Z"></path></g><defs><clipPath id="logo-spreent_0"><path fill="#fff" d="M0 0h126.88v28h-126.88z"></path></clipPath></defs></svg><svg viewBox="0 0 53 20" fill="none" id="mish"><g clip-path="url(#mish_0)"><path fill-rule="evenodd" clip-rule="evenodd" d="M14.86 8.7c1.22-1.92 2.8-2.57 4.06-2.57 1.44 0 3.01.96 2.4 3.97l-1.83 9.32h-5.03l1.4-7.09c.17-.96-.13-1.44-.66-1.44-.52 0-1.09.4-1.26 1.44l-1.4 7.09h-5.03l1.4-7.09c.18-.96-.13-1.44-.65-1.44-.53 0-1.1.4-1.27 1.44l-1.4 7.09h-5.02l2.53-12.94h5.03l-.44 2.22h.22c1.22-1.92 2.8-2.57 4.06-2.57 1.18 0 2.45.65 2.54 2.57h.34Zm13.54-2.22h-5.02l-2.54 12.94h5.03l2.53-12.94Zm4.63 13.33c-2.18 0-4.46-.66-5.94-2.06l2.27-3.32c2.54 1.75 4.76 1.49 4.76.88 0-.4-.65-.66-1.48-.97-1.53-.56-3.67-1.35-3.67-3.84 0-2.89 3.1-4.42 5.63-4.42 1.97 0 3.59.61 5.16 1.75l-2.18 3.24c-2.36-1.62-4.33-1.32-4.33-.62 0 .22.48.4 1.14.62 1.57.56 4.15 1.44 4.15 4.1 0 2.28-2.06 4.64-5.5 4.64Zm17-13.68c-1.27 0-2.84.7-4.07 2.57h-.21l1.53-7.69h-5.03l-3.63 18.4h5.03l1.4-7.08c.22-1.05.74-1.44 1.26-1.44.53 0 .83.48.66 1.44l-1.4 7.09h5.03l1.83-9.32c.61-3.01-.96-3.97-2.4-3.97Zm-20.45-4.68c-.57-1.31-2.36-1.84-3.98-1.14-1.61.7-2.49 2.32-1.92 3.63.57 1.31 2.36 1.84 3.98 1.14 1.61-.7 2.49-2.32 1.92-3.63Z" fill="#0D1627"></path></g><defs><clipPath id="mish_0"><path fill="#fff" d="M0 0h52.83v19.8h-52.83z"></path></clipPath></defs></svg><svg viewBox="0 0 29 29" fill="none" id="mts"><path d="M28.17 28.17h-28.17v-28.17h28.17v28.17Zm-5.73-8.8c-.76 0-1.42.1-1.96.32-.54.2-.98.59-1.27 1.08a3.9 3.9 0 0 0-.44 1.9v.16c.01.78.16 1.42.44 1.9.29.5.73.88 1.27 1.09.54.21 1.2.32 1.96.32.62.02 1.24-.06 1.84-.22a2.27 2.27 0 0 0 1.73-2.09h-1.58c-.03.25-.14.47-.31.64-.18.16-.4.28-.64.32-.35.07-.7.1-1.05.1a3.4 3.4 0 0 1-1.1-.16c-.3-.1-.55-.29-.72-.55a1.97 1.97 0 0 1-.26-1.1v-.66a2 2 0 0 1 .26-1.1c.17-.25.42-.44.72-.54a4.87 4.87 0 0 1 2.16-.07c.23.05.45.16.63.33.17.17.28.39.3.63h1.6a2.3 2.3 0 0 0-.55-1.36 2.5 2.5 0 0 0-1.2-.73 6.7 6.7 0 0 0-1.83-.22Zm-3.67-15.9h2.83v5.22h1.59v-5.23h2.83v-1.31h-7.25v1.31Zm-16.6 5.2h1.58v-4.65l2.03 3.93h1.44l2.03-3.93v4.65h1.58v-6.5h-2.26l-2.07 4.3-2.07-4.3h-2.26v6.5Z" fill="#0D1627"></path></svg><svg viewBox="0 0 45 45" fill="none" id="plus"><path stroke="#1859FF" stroke-width="2" d="M23.5 0v45m-23.5-23.5h45"></path></svg><svg viewBox="0 0 100 26" fill="none" id="rustore"><g clip-path="url(#rustore_0)" fill="#0D1627"><path d="M13.05 0c5.68 0 8.51 0 10.28 1.76 1.76 1.77 1.76 4.6 1.76 10.28v1c0 5.69 0 8.52-1.76 10.29-1.77 1.76-4.6 1.76-10.28 1.76h-1c-5.68 0-8.52 0-10.29-1.76-1.76-1.77-1.76-4.6-1.76-10.28v-1c0-5.68 0-8.52 1.76-10.29 1.77-1.76 4.6-1.76 10.28-1.76h1Zm1.82 4.65a1.22 1.22 0 0 0-1.51 1.18v1.47l-3.07-.77c-.76-.19-1.5.39-1.5 1.18v1.47l-3.07-.77a1.22 1.22 0 0 0-1.51 1.18v8.17c0 .7.47 1.3 1.15 1.47l4.86 1.21c.77.2 1.51-.39 1.51-1.17v-1.48l3.06.77c.77.19 1.52-.39 1.52-1.18v-1.47l3.06.77c.77.19 1.51-.39 1.51-1.18v-8.17c0-.69-.47-1.3-1.15-1.46l-4.86-1.22Z"></path><path d="M13.12 18.14a.5.5 0 0 1-.38-.46l-.2-6.24a1.94 1.94 0 0 0-1.32-1.68.09.09 0 0 0-.1.04.07.07 0 0 0 .02.1c.16.12.6.52.6 1.2v6.69l1.38.35Zm4.58-1.88a.5.5 0 0 1-.38-.46l-.21-6.24a1.94 1.94 0 0 0-1.31-1.68.09.09 0 0 0-.1.04.07.07 0 0 0 .02.1c.15.12.59.52.59 1.2v6.7l1.38.34Zm21.84-1.85c1.9-.48 3.15-1.93 3.15-3.83 0-2.36-1.89-4-4.53-4h-4.7v12.64h2.17v-4.64h1.54l3.36 4.64h2.55l-3.54-4.8Zm-1.38-5.86c1.36 0 2.3.82 2.3 2.03 0 1.2-.94 2.02-2.3 2.02h-2.53v-4.05h2.53Zm9.81 10.85c1.14 0 2.19-.59 2.79-1.58l.41 1.4h1.56v-9.33h-2.08v5.4c0 1.33-.89 2.26-2.1 2.26-1.2 0-2.03-.93-2.03-2.26v-5.4h-2.08v5.64c0 2.24 1.52 3.87 3.53 3.87Zm11.4 0c2.4 0 4.4-1.36 4.4-3.62 0-2.53-2.08-3.27-3.87-3.88-1.4-.46-2.6-.9-2.6-2.02 0-1 .91-1.51 2-1.51 1.14 0 1.95.6 2.4 1.6l2.07-.34a4.56 4.56 0 0 0-4.54-3.23c-2.32 0-4.17 1.32-4.17 3.58 0 2.55 2.09 3.25 3.88 3.84 1.37.45 2.6.88 2.6 2.03 0 1-.92 1.58-2.15 1.58-1.41 0-2.17-.66-2.84-1.87l-2.1.36c.61 2.14 2.57 3.48 4.92 3.48Zm10.06-1.97c-.7 0-1.05-.34-1.05-1.04v-4.7h2.8v-1.8h-2.8v-2.69h-1.56l-.52 2.7h-1.54v1.79h1.54v4.7c0 1.83 1.07 2.83 3.13 2.83h1.76l.18-1.8h-1.94Zm7.88 1.97c2.95 0 5.03-2 5.03-4.84s-2.08-4.85-5.03-4.85-5.03 2.01-5.03 4.85c0 2.83 2.08 4.84 5.03 4.84Zm0-1.88c-1.7 0-2.86-1.2-2.86-2.96s1.16-2.96 2.86-2.96 2.86 1.2 2.86 2.96-1.16 2.96-2.86 2.96Zm8.92 1.7v-5.5c0-1.19.58-1.85 1.85-1.85h1.2l-.19-1.98h-.4c-1.1 0-1.95.3-2.58 1.35l-.4-1.35h-1.56v9.33h2.08Zm13.29-4.77c0-2.69-2.03-4.74-4.9-4.74a4.68 4.68 0 0 0-4.88 4.85 4.68 4.68 0 0 0 4.89 4.84c1.95 0 3.8-.91 4.5-2.69l-1.95-.32a2.87 2.87 0 0 1-2.42 1.13c-1.6 0-2.65-.97-2.85-2.4h7.57c.02-.2.04-.42.04-.67Zm-4.9-2.94c1.31 0 2.29.82 2.63 2h-5.2c.34-1.21 1.31-2 2.58-2Z"></path></g><defs><clipPath id="rustore_0"><path fill="#fff" d="M0 0h99.52v25.1h-99.52z"></path></clipPath></defs></svg><svg viewBox="0 0 81 22" fill="none" id="sber"><path d="m63.71 6.54 2.97-2.2h-9.95v13.15h9.95v-2.2h-7.1v-3.35h6.07v-2.2h-6.08v-3.2h4.14Zm-14.5 2.93h-3.45v-2.93h5.52l2.97-2.2h-11.33v13.15h5.93c3.31 0 5.23-1.5 5.23-4.13 0-2.52-1.72-3.9-4.87-3.9Zm-.47 5.83h-2.98v-3.64h2.98c1.8 0 2.65.6 2.65 1.83 0 1.22-.9 1.8-2.65 1.8Zm26.01-10.95h-5.4v13.14h2.84v-3.72h2.58c3.45 0 5.6-1.8 5.6-4.71 0-2.9-2.15-4.71-5.62-4.71Zm-.07 7.22h-2.52v-5.03h2.52c1.84 0 2.83.9 2.83 2.52 0 1.61-1 2.51-2.83 2.51Zm-36.63 3.08c-.75.4-1.6.62-2.46.62a4.24 4.24 0 0 1-4.41-4.34 4.24 4.24 0 0 1 4.41-4.35 4.3 4.3 0 0 1 2.59.82l2.05-1.5-.13-.13a6.77 6.77 0 0 0-4.6-1.6 7.3 7.3 0 0 0-5.03 1.88 6.47 6.47 0 0 0-1.99 4.8 6.79 6.79 0 0 0 1.99 4.88 7.14 7.14 0 0 0 5.02 1.93c2.04 0 3.83-.7 5.04-2l-1.83-1.35-.65.34Zm-18.46-10.39c.51.67.94 1.4 1.31 2.17l-9.95 7.34-4.18-2.63v-3.14l4.16 2.6 8.66-6.34Zm-17.07 6.67c0-.15 0-.28.02-.43l-2.52-.13-.02.54c0 3 1.23 5.74 3.21 7.72l1.79-1.79a8.26 8.26 0 0 1-2.48-5.91Zm8.4-8.39c.15 0 .28 0 .43.02l.13-2.52-.54-.02c-3.01 0-5.75 1.23-7.73 3.2l1.79 1.8a8.33 8.33 0 0 1 5.92-2.48Zm.01 16.78c-.16 0-.28 0-.44-.02l-.12 2.51.53.02c3.02 0 5.76-1.22 7.74-3.2l-1.79-1.79a8.2 8.2 0 0 1-5.92 2.48Z" fill="#0D1627"></path><path d="m15.66 4 2.14-1.57a10.96 10.96 0 0 0-6.88-2.43v2.52a8.5 8.5 0 0 1 4.74 1.48Zm6.21 6.93c0-.67-.06-1.31-.17-1.96l-2.35 1.74v.22a8.33 8.33 0 0 1-2.78 6.22l1.7 1.87a10.9 10.9 0 0 0 3.6-8.1Zm-10.95 8.39a8.35 8.35 0 0 1-6.22-2.78l-1.88 1.7c2 2.22 4.9 3.6 8.1 3.6v-2.52Zm-5.62-14.61-1.7-1.87c-2.22 2-3.6 4.88-3.6 8.09h2.52a8.36 8.36 0 0 1 2.78-6.22Z" fill="#0D1627"></path></svg><svg viewBox="0 0 113 18" fill="none" id="sportmaster"><path fill-rule="evenodd" clip-rule="evenodd" d="M41.03 13.5a4.7 4.7 0 0 0 3.26-1.13 4.94 4.94 0 0 0 1.65-2.57c.29-1 .23-1.86-.2-2.57-.44-.7-1.3-1.08-2.64-1.08a4.83 4.83 0 0 0-4.9 3.65c-.3 1.05-.24 1.9.2 2.57.43.75 1.3 1.12 2.63 1.12Zm.5-1.8c-.4 0-.7-.15-.82-.52-.13-.33-.11-.78.06-1.38.15-.55.4-1 .72-1.37.32-.34.7-.49 1.1-.49.41 0 .7.15.84.49.12.37.1.82-.06 1.37a3.2 3.2 0 0 1-.72 1.38c-.33.37-.7.52-1.12.52Zm66.13-.35c-.37 0-.59-.15-.69-.45-.14-.3-.15-.67-.01-1.15.14-.49.36-.9.66-1.16.27-.3.6-.4.94-.44.79 0 1.04.56.77 1.64-.13.48-.35.85-.62 1.15-.34.3-.67.41-1.05.41Zm-2.34-5.03-2.61 9.28h2.68l.86-3.06c.28.6.79.9 1.46.9a4.2 4.2 0 0 0 2.48-.86c.41-.33.77-.72 1.06-1.16.3-.4.55-1 .77-1.67.28-.97.26-1.83-.06-2.53-.33-.71-1-1.08-2.05-1.08-.4 0-.81.1-1.27.3-.47.18-.86.51-1.2.92h-.03l.29-1.04h-2.38Zm-2.21 4.1c.35-1.27.35-2.31-.14-3.1-.45-.78-1.34-1.19-2.6-1.19-1.08 0-2.07.34-2.97 1.01a4.87 4.87 0 0 0-1.9 2.76c-.3 1.11-.19 2 .4 2.6.52.64 1.33.93 2.45.93.82 0 1.6-.15 2.4-.48.8-.34 1.46-.93 1.96-1.79h-2.57c-.12.19-.32.34-.53.45-.18.11-.42.15-.64.15-.37 0-.64-.11-.83-.38-.18-.26-.21-.55-.1-.96h5.07Zm-4.68-1.38c.22-.78.75-1.2 1.58-1.23.32.04.59.15.71.37.16.23.23.52.13.86h-2.42Zm-9.08 4.24 1.4-4.96h-2.32l.57-2h7.3l-.57 2h-2.3l-1.4 4.96h-2.68Zm-1.27-4.32c.13-1-.07-1.75-.65-2.2a3.88 3.88 0 0 0-2.24-.63 4.93 4.93 0 0 0-4.88 3.72c-.33 1.16-.2 2.05.36 2.68.54.6 1.34.93 2.45.93.94 0 1.86-.22 2.65-.67a4 4 0 0 0 1.9-2.23h-2.68c-.12.27-.29.51-.5.7-.21.23-.5.34-.84.34-.41 0-.67-.15-.76-.48-.1-.3-.1-.71.06-1.27.05-.18.15-.4.25-.63.1-.23.2-.45.33-.63.13-.2.32-.34.5-.45.18-.11.39-.19.65-.19.3 0 .49.11.58.3.15.15.15.4.1.7h2.72Zm-13.02 2.94c-.6 0-.84-.19-.74-.56a.88.88 0 0 1 .37-.52c.19-.11.36-.19.59-.22.2-.08.48-.12.71-.15l.8-.23c-.09.49-.27.86-.55 1.2-.32.33-.7.48-1.18.48Zm3.9 1.34.04-.11a.57.57 0 0 1-.17-.45c-.01-.11 0-.26.05-.45l.9-3.24c.12-.4.23-.78.26-1.15.06-.3 0-.63-.16-.9-.15-.26-.43-.44-.87-.59a6.08 6.08 0 0 0-1.88-.22c-1.26 0-2.3.22-3 .6-.7.4-1.13 1-1.34 1.74h2.64c.16-.3.32-.48.54-.6a1.6 1.6 0 0 1 1.15 0c.17.08.24.23.2.49-.12.3-.43.48-.94.56l-.77.11c-.31.04-.62.07-.97.15-.3 0-.62.07-.91.19-.32.07-.66.22-.93.37a2.62 2.62 0 0 0-1.24 1.64c-.19.67-.08 1.19.31 1.52.35.38.86.52 1.5.52a4.08 4.08 0 0 0 2.75-.93l-.06.75h2.9Zm-23.11.04 1.4-4.96h-2.35l.57-2h7.33l-.56 2h-2.35l-1.4 4.96h-2.64Zm-5.87-1.93c-.37 0-.6-.15-.7-.45-.14-.3-.14-.67 0-1.15.13-.49.36-.9.65-1.16.27-.3.6-.4.95-.44.78 0 1.03.56.77 1.64-.14.48-.36.85-.63 1.15-.34.3-.67.41-1.04.41Zm-2.35-5.03-2.6 9.28h2.67l.86-3.06c.28.6.8.9 1.46.9a4.2 4.2 0 0 0 2.48-.86c.42-.33.78-.72 1.07-1.16.3-.4.54-1 .77-1.67.27-.97.25-1.83-.07-2.53-.32-.71-1-1.08-2.04-1.08-.41 0-.81.1-1.28.3a3 3 0 0 0-1.19.92h-.04l.3-1.04h-2.39Zm-18.76 6.96h2.64l1.4-4.96h2.12l-1.4 4.96h2.68l1.97-6.97h-7.45l-1.96 6.97Zm.4-4.32c.13-1-.07-1.75-.65-2.2a3.87 3.87 0 0 0-2.25-.63 4.93 4.93 0 0 0-4.88 3.72c-.33 1.16-.2 2.05.36 2.68.54.6 1.34.93 2.46.93.93 0 1.85-.22 2.64-.67a4 4 0 0 0 1.9-2.23h-2.68c-.11.27-.28.51-.5.7-.21.23-.5.34-.84.34-.4 0-.66-.15-.76-.48-.1-.3-.1-.71.06-1.27.06-.18.16-.4.26-.63.1-.23.2-.45.32-.63.13-.2.32-.34.5-.45.18-.11.39-.19.65-.19.3 0 .49.11.59.3.14.15.14.4.1.7h2.71Zm34.83-4.81 1.83 8.52 6.68-8.58-5.32 3.74-3.19-3.68Zm-.55 2.17-1.98 6.94h3.43l-1.45-6.94Zm8.43 0-5.3 6.94h3.32l1.98-6.94Zm-51.09-3.64-6.48 7.35-14.41-7.29 13.62 2.87 7.27-2.93Z" fill="#0D1627"></path><path fill-rule="evenodd" clip-rule="evenodd" d="m1.3 17.17 7.6-8.62 16.88 8.55-15.96-3.37-8.52 3.44Zm11.9-17.16a2.28 2.28 0 0 0 .36 4.53 2.28 2.28 0 0 0-.37-4.53Z" fill="#0D1627"></path></svg><svg viewBox="0 0 30 28" fill="none" id="vc"><g clip-path="url(#vc_0)"><path d="M20.11 22.23c0 2.12 1.55 2.58 2.33 2.54 2.56 0 3.2-1.84 3.2-2.77v-5.41h-1.99v-2h4.1v9.85h1.43v1.88h-3.32v-1.88c-.7 1.77-2.72 2.13-3.65 2.1-3.27 0-4.09-2.29-4.09-3.43v-6.52h-1.76v-2h3.75v7.64Zm-17.24 4.09h-2.22v-2h2.22v2Zm5.63-9.3c1.88-2.2 2.55-2.42 3.65-2.42h2v3.53h-2v-1.76h-.66c-.77 0-2.87 1.23-2.87 3.1v4.86h5.08v1.99h-8.84v-2h1.99v-7.84h-2v-1.88h3.65v2.43Zm15.04-17.02c2.3 0 4.13 1.03 4.76 1.55v2.87h-2.21v-1.88c-.08-.25-.62-.77-2.22-.77-1.99 0-4.09 1.1-4.09 4.31 0 3.2 2.32 4.1 3.76 4.1s2.43-.56 3.43-1.44l1.66 1.1c-.67.78-2.54 2.32-4.76 2.32-2.76 0-6.3-1.99-6.3-6.08s3.1-6.08 5.97-6.08Zm-12.93 8.85 3.1-8.85h3.42v2.1h-2l-3.64 9.95h-1.99l-3.54-9.84h-1.99v-2.2h3.54l3.1 8.84Z" fill="#0D1627"></path></g><defs><clipPath id="vc_0"><path fill="#fff" d="M0 0h29.71v27.07h-29.71z"></path></clipPath></defs></svg><svg viewBox="0 0 63 23" fill="none" id="vtb"><g clip-path="url(#vtb_1)"><path fill-rule="evenodd" clip-rule="evenodd" d="m4.27 0-1.07 2.93h14.8l1.07-2.93h-14.8Zm-1.6 4.39-1.07 2.92h14.8l1.07-2.92h-14.8Zm-1.6 4.38-1.07 2.93h14.8l1.07-2.93h-14.8Z" fill="#0D1627"></path><mask id="vtb_0" style="mask-type:luminance" maskUnits="userSpaceOnUse" x="22" y="4" width="41" height="19"><path d="M22.2 22.36h40.52v-17.92h-40.52v17.92Z" fill="#fff"></path></mask><g mask="url(#vtb_0)"><path fill-rule="evenodd" clip-rule="evenodd" d="M31.46 12.81v.07c.68.24 1.33.68 1.66.96a4.24 4.24 0 0 1 1.51 3.5c0 2.45-1.3 4.22-3.41 4.77-.65.2-1.33.25-2.59.25h-6.43v-17.92h5.7c1.16 0 1.96.07 2.67.25 2.06.56 3.42 1.99 3.42 4.25 0 1.2-.44 2.23-1.14 2.91a4.2 4.2 0 0 1-1.39.96Zm-5.69 1.9v4.7h2.46c.74 0 1.42-.05 1.91-.52.5-.46.7-1.05.7-1.83a2.6 2.6 0 0 0-.45-1.55c-.53-.65-1.17-.8-2.28-.8h-2.34Zm-.03-3.1h2c.62 0 .92 0 1.23-.1.83-.25 1.35-.99 1.35-2.01 0-1.21-.55-1.74-1.35-1.99a5.01 5.01 0 0 0-1.35-.12h-1.88v4.21Zm14.24 10.75v-14.91h-5.13v-3h14.27l-1.02 3h-4.55v14.91h-3.57Zm10.25 0v-17.92h11.56l-1.01 3.01h-7.02v3.97h2.87c2.3 0 3.5.56 4.33 1.27.65.56 1.76 1.8 1.76 4.25a5.16 5.16 0 0 1-2.1 4.43c-1.1.78-2.27 1-4.64 1h-5.75Zm3.53-3h2.68c1.02 0 1.63-.25 2.06-.81.22-.28.52-.78.52-1.7 0-.94-.3-1.59-.92-2.05-.37-.28-.86-.44-1.69-.44h-2.65v5Z" fill="#0D1627"></path></g></g><defs><clipPath id="vtb_1"><path fill="#fff" d="M0 0h62.84v22.54h-62.84z"></path></clipPath></defs></svg></svg>