<svg viewBox="0 0 240 240" fill="none" xmlns="http://www.w3.org/2000/svg"><path fill="#fff" d="M0 0h240v240h-240z"/><path fill="#fff" d="M9.07 9.07h221.86v221.86h-221.86z"/><path fill-rule="evenodd" clip-rule="evenodd" d="M95.92 127.85c2.14 0 3.86-.6 5.2-1.79a7.9 7.9 0 0 0 2.65-4.1c.46-1.62.37-2.99-.33-4.12s-2.07-1.73-4.22-1.73c-2.14 0-3.86.6-5.2 1.73a8.18 8.18 0 0 0-2.64 4.11c-.47 1.67-.38 3.04.33 4.11.68 1.2 2.06 1.8 4.2 1.8Zm.8-2.86c-.65 0-1.12-.24-1.31-.83-.2-.54-.19-1.25.08-2.2.25-.9.63-1.62 1.16-2.21.5-.54 1.11-.78 1.77-.78.65 0 1.12.24 1.33.78.19.6.16 1.3-.09 2.2a5.13 5.13 0 0 1-1.15 2.2c-.53.6-1.13.84-1.79.84Zm105.8-.56c-.59 0-.94-.24-1.1-.72-.23-.48-.24-1.07-.02-1.85.22-.77.58-1.43 1.06-1.84.43-.48.96-.66 1.51-.72 1.25 0 1.66.9 1.23 2.62a4.5 4.5 0 0 1-1 1.85c-.55.48-1.08.66-1.67.66Zm-3.75-8.05-4.17 14.84h4.29l1.37-4.89a2.41 2.41 0 0 0 2.34 1.43c1.31 0 2.62-.42 3.96-1.37a7.81 7.81 0 0 0 1.71-1.85c.49-.65.87-1.6 1.23-2.68a5.9 5.9 0 0 0-.1-4.05c-.52-1.13-1.6-1.73-3.27-1.73a5.39 5.39 0 0 0-3.95 1.97h-.06l.47-1.67h-3.82Zm-3.53 6.55c.57-2.02.56-3.7-.22-4.94-.72-1.25-2.14-1.91-4.17-1.91a7.8 7.8 0 0 0-4.74 1.6 7.8 7.8 0 0 0-3.03 4.42c-.5 1.79-.31 3.22.61 4.17.85 1.01 2.15 1.49 3.93 1.49a9.8 9.8 0 0 0 3.86-.78 6.55 6.55 0 0 0 3.13-2.86h-4.12c-.2.3-.5.54-.85.72a2 2 0 0 1-1.02.24c-.6 0-1.03-.18-1.33-.6-.3-.42-.34-.9-.16-1.55h8.1Zm-7.49-2.2c.36-1.25 1.2-1.9 2.53-1.97.51.06.94.24 1.14.6.26.36.36.83.2 1.37h-3.87Zm-14.53 6.78 2.23-7.93h-3.7l.91-3.21h11.68l-.9 3.21h-3.7l-2.23 7.93h-4.3Zm-2.03-6.91c.22-1.61-.1-2.8-1.03-3.52a6.2 6.2 0 0 0-3.59-1.01 7.89 7.89 0 0 0-7.82 5.96c-.51 1.84-.32 3.28.59 4.29.86.95 2.14 1.49 3.93 1.49 1.48 0 2.96-.36 4.23-1.08a6.83 6.83 0 0 0 1.77-1.42c.53-.6.9-1.31 1.26-2.15h-4.29c-.18.43-.45.82-.8 1.13-.33.36-.8.54-1.34.54-.65 0-1.06-.24-1.2-.78a3.47 3.47 0 0 1 .09-2.02c.08-.3.24-.66.4-1.02.16-.35.32-.71.52-1 .2-.3.51-.55.8-.72.29-.18.62-.3 1.04-.3.47 0 .78.18.94.48.23.23.23.65.16 1.13h4.34Zm-20.83 4.7c-.95 0-1.34-.3-1.18-.89.1-.36.3-.66.6-.83.29-.18.56-.3.93-.36.33-.12.77-.18 1.14-.24l1.3-.36a4.12 4.12 0 0 1-.9 1.9c-.5.55-1.11.78-1.89.78Zm6.25 2.15.05-.18a.91.91 0 0 1-.27-.71c-.01-.18 0-.42.08-.72l1.46-5.18c.18-.66.35-1.25.4-1.85.09-.5 0-1-.25-1.43-.24-.42-.7-.72-1.4-.95a9.74 9.74 0 0 0-3-.36c-2.03 0-3.68.36-4.8.95a4.51 4.51 0 0 0-2.16 2.8h4.23c.26-.47.52-.77.87-.95.39-.12.64-.18.94-.18.3 0 .58.06.9.18.27.12.38.35.32.77-.2.48-.7.78-1.5.9-.37.06-.8.12-1.24.17-.5.06-.99.12-1.56.24-.47 0-.99.12-1.45.3a6 6 0 0 0-1.48.6 4.2 4.2 0 0 0-1.99 2.62c-.3 1.07-.12 1.9.5 2.44.55.6 1.38.84 2.39.84.83 0 1.57-.06 2.23-.3a8.28 8.28 0 0 0 2.18-1.2l-.1 1.2h4.65Zm-36.98.06 2.23-7.93h-3.76l.91-3.21h11.74l-.9 3.21h-3.76l-2.23 7.93h-4.23Zm-9.4-3.09c-.6 0-.95-.23-1.1-.71-.23-.48-.24-1.07-.02-1.85.21-.77.58-1.43 1.05-1.84.43-.48.96-.66 1.51-.72 1.25 0 1.66.9 1.23 2.62a4.5 4.5 0 0 1-1 1.85 2.4 2.4 0 0 1-1.67.66Zm-3.75-8.04-4.18 14.84h4.3l1.37-4.89a2.41 2.41 0 0 0 2.34 1.43c1.3 0 2.61-.42 3.96-1.37a7.8 7.8 0 0 0 1.7-1.85c.49-.65.88-1.6 1.24-2.68.44-1.55.4-2.92-.11-4.05-.52-1.13-1.6-1.73-3.27-1.73-.65 0-1.3.18-2.04.48s-1.37.83-1.9 1.49h-.07l.47-1.67h-3.81Zm-30.03 11.13h4.23l2.23-7.93h3.4l-2.23 7.93h4.29l3.14-11.14h-11.92l-3.14 11.14Zm.64-6.91c.21-1.61-.1-2.8-1.04-3.52a6.2 6.2 0 0 0-3.59-1.01 7.89 7.89 0 0 0-7.81 5.96c-.52 1.84-.33 3.28.58 4.29.86.95 2.14 1.49 3.93 1.49 1.49 0 2.96-.36 4.23-1.08a6.82 6.82 0 0 0 1.78-1.42c.52-.6.9-1.31 1.26-2.15h-4.3a3.1 3.1 0 0 1-.79 1.13c-.34.36-.8.54-1.34.54-.66 0-1.07-.24-1.21-.78a3.45 3.45 0 0 1 .09-2.02 8 8 0 0 1 .4-1.02c.16-.35.32-.71.53-1 .2-.3.5-.55.8-.72.28-.18.61-.3 1.03-.3.48 0 .79.18.94.48.23.23.23.65.16 1.13h4.35Zm55.74-7.7 2.93 13.64 10.68-13.73-8.51 5.98-5.1-5.88Zm-.88 3.48-3.18 11.1h5.5l-2.32-11.1Zm13.48 0-8.48 11.1h5.3l3.18-11.1Zm-81.74-5.83-10.37 11.76-23.05-11.66 21.79 4.6 11.63-4.7Z" fill="#0D1627"/><path fill-rule="evenodd" clip-rule="evenodd" d="m32.34 133.73 12.16-13.78 27.01 13.67-25.53-5.39-13.64 5.5Zm19.04-27.45a3.64 3.64 0 1 0 .6 7.25 3.64 3.64 0 0 0-.6-7.25Z" fill="#0D1627"/></svg>